<svg fill="none" xmlns="http://www.w3.org/2000/svg" viewBox="0 0 798 153">
  <path d="M388.572.6c-15.529 2.884-26.581 10.352-33.576 22.571-9.723 17.085-6.645 41.41 6.785 54.026 9.024 8.373 21.405 12.616 36.934 12.672 10.982.057 16.088-1.244 26.861-6.845 5.526-2.772 6.855-2.376 8.184 2.716.629 2.545.979 2.941 2.238 2.772.98-.114 1.539-.566 1.469-1.188 0-.51-.07-7.185-.14-14.822l-.14-13.86h-1.748c-1.399 0-1.749.34-2.099 2.093-2.238 11.314-3.707 14.482-9.093 19.234-5.456 4.979-15.249 7.864-24.623 7.411-13.36-.735-23.853-9.504-28.679-24.1-1.749-5.09-1.889-6.392-1.889-17.65-.07-12.728.28-15.16 3.428-23.194C378.289 7.67 390.041.656 405.85 2.579c6.925.905 13.08 3.338 17.347 6.845 5.806 4.809 7.345 7.581 9.793 17.65.7 2.942.98 3.282 2.519 3.282h1.678V17.175c0-7.185.21-13.69.42-14.426.35-1.018.14-1.245-1.259-1.245-1.539 0-1.889.453-2.938 3.395-.629 1.923-1.609 3.564-2.168 3.733-.56.17-1.959-.113-3.078-.678-13.221-6.79-16.089-7.638-27.001-7.92-5.526-.114-9.863.056-12.591.565zm224.89-.227c-19.097 2.885-33.437 14.652-38.613 31.567-2.168 7.015-2.168 21.497.07 28.116 5.806 17.537 20.356 27.89 41.48 29.7 22.314 1.867 40.781-6.166 50.225-21.78 4.406-7.354 5.875-13.124 5.875-23.76.07-9.278-.559-12.842-3.287-19.234-3.218-7.694-11.192-15.67-19.726-19.8-7.065-3.395-14.06-4.866-24.133-5.092-4.827-.113-10.143 0-11.891.283zm19.446 3.62c15.109 6.223 23.643 25.57 21.125 47.747-1.539 13.86-6.296 23.986-14.27 30.379-5.177 4.243-9.513 5.657-16.928 5.6-9.653-.112-18.117-5.09-23.853-14.142-5.456-8.6-7.205-15.5-7.205-28.512 0-15.897 3.428-26.363 11.262-34.792 5.526-5.94 11.402-8.26 20.216-8.033 4.826.17 6.645.509 9.653 1.753zm-461.81-.113c-.7 1.641-3.428 7.468-6.086 12.899-2.588 5.43-7.834 16.236-11.542 24.043-18.397 38.695-18.536 38.978-22.104 41.976-1.189.962-3.078 2.093-4.127 2.49-1.189.395-2.029 1.074-2.029 1.696 0 1.019.77 1.075 14.76 1.075 13.64 0 14.689-.056 14.48-1.018-.14-.566-.98-1.019-1.959-1.132-4.477-.396-7.834-1.47-9.583-3.168-1.679-1.64-1.749-2.036-1.399-5.996.28-3.338 1.189-5.997 4.407-12.899l4.127-8.598 17.697.113 17.767.17 4.477 9.9c7.765 17.028 7.905 17.876 3.078 19.46-1.539.51-3.777.905-4.897.905-1.608 0-2.098.226-2.098 1.132 0 1.131.49 1.131 19.446 1.131 18.467 0 19.446-.056 19.516-1.075.07-.735-.629-1.188-2.588-1.697-1.679-.396-3.498-1.414-4.547-2.602-1.049-1.019-7.205-13.068-13.71-26.702-6.575-13.634-15.109-31.51-19.096-39.77l-7.275-14.992-2.658-.17c-2.728-.169-2.728-.169-4.057 2.83zm12.521 47.803l.419 1.302h-32.876l1.679-3.678c.979-2.036 2.588-5.374 3.567-7.524.979-2.093 3.498-7.354 5.526-11.767 2.029-4.355 4.267-8.938 4.897-10.182l1.189-2.207 7.554 16.406c4.128 8.995 7.765 16.972 8.045 17.65zM0 2.636C0 3.37.77 3.71 3.288 4.05c1.748.226 3.987.622 4.896.905 3.638 1.132 3.708 1.528 3.708 39.996 0 23.365-.28 36.15-.7 37.281-.91 1.98-3.078 2.942-7.834 3.394C.699 85.91 0 86.192 0 86.984c0 1.019.98 1.075 20.635 1.075 19.656 0 20.635-.056 20.635-1.075 0-.792-.699-1.131-3.077-1.358-1.68-.226-3.848-.678-4.827-1.018-3.357-1.244-3.637-2.772-3.637-21.44V45.912h45.887l-.07 17.368c0 10.409-.35 17.99-.77 19.008-.769 1.867-2.727 2.715-7.624 3.394-2.168.283-3.218.735-3.358 1.414-.21.906 1.26.962 20.776.962 20.075 0 21.054-.056 21.054-1.075 0-.792-.699-1.075-3.357-1.358-4.687-.452-6.925-1.414-7.974-3.45-.63-1.302-.91-9.504-1.12-33.434-.14-17.424-.07-33.774.21-36.376.63-5.996 1.819-7.298 7.695-8.203 2.868-.452 4.197-.961 4.197-1.527 0-.736-2.728-.849-20.636-.849-17.837 0-20.635.113-20.635.849 0 .566 1.4 1.075 4.407 1.584 7.275 1.301 7.135.905 7.135 21.723v17.424H29.309l.21-17.48c.28-20.649.07-20.083 7.415-21.554 3.077-.622 4.337-1.131 4.337-1.754 0-.848-2.03-.905-20.636-.962C1.33 1.617 0 1.674 0 2.636zm242.027 0c0 .735.77 1.075 3.288 1.414 5.036.622 6.995 1.64 7.834 4.13 1.049 2.885 1.049 70.318 0 73.26-.839 2.602-2.868 3.734-7.554 4.186-3.008.283-3.568.51-3.568 1.528v1.188l40.291-.17 40.361-.113-.489-2.998c-.21-1.584-.42-7.694-.42-13.578V60.904h-1.749c-1.469 0-1.748.283-1.748 1.641 0 3.168-3.428 12.616-5.596 15.388-2.449 2.998-7.065 5.826-11.472 6.845-1.749.452-7.275.735-13.85.735-10.003 0-11.122-.113-12.941-1.188-1.049-.622-2.169-1.81-2.378-2.546-.28-.735-.49-17.197-.56-36.545-.07-42.429-.63-39.6 8.324-41.127 2.588-.396 3.917-.906 4.057-1.528.21-.849-1.749-.962-20.775-.962-19.726 0-21.055.057-21.055 1.019zm219.643.113c0 .566.699 1.245 1.609 1.527 2.938.962 5.316 3.79 13.99 16.746 4.756 7.128 9.653 14.425 10.772 16.123 1.189 1.697 4.547 6.675 7.485 11.088l5.316 7.976v10.805c0 16.18-.77 17.877-8.324 18.612-2.868.283-3.568.51-3.568 1.358 0 1.019.98 1.075 20.636 1.075s20.635-.056 20.635-1.075c0-.848-.7-1.075-3.637-1.358-4.337-.452-6.926-1.81-7.695-4.13-.35-.904-.56-8.202-.56-16.235V50.665l10.563-17.084c5.876-9.391 11.821-18.782 13.29-20.819 2.728-3.847 7.835-8.43 9.374-8.43.979 0 1.958-1.526 1.399-2.205-.14-.227-6.785-.453-14.69-.51-13.5-.056-14.34 0-14.34.962 0 .849.91 1.188 4.337 1.754 3.148.453 4.827 1.131 6.366 2.32 1.958 1.64 2.028 1.866 1.749 5.713-.35 3.734-.98 4.922-10.563 20.592-5.666 9.165-10.492 16.632-10.772 16.632-.28-.056-1.189-1.131-1.959-2.432-.769-1.301-6.365-10.014-12.381-19.404-6.016-9.335-11.192-17.65-11.402-18.5-.909-2.828 1.259-4.242 8.254-5.204 1.889-.226 2.588-.622 2.588-1.414 0-1.019-.839-1.075-19.236-.962-18.187.057-19.236.113-19.236 1.075zm238.809-.622c-.699.961.35 1.47 4.477 2.15 2.378.339 4.687 1.13 5.386 1.753 2.169 1.924 2.588 9.108 2.309 41.75-.21 27.777-.35 31.737-1.399 33.604-1.259 2.263-2.868 3.168-7.485 4.13-2.029.395-3.148.961-3.288 1.583-.14.906 1.12.962 14.83.962 14.13 0 14.969-.056 14.969-1.075 0-.848-.699-1.075-3.567-1.358-4.617-.452-7.695-1.923-9.164-4.412-1.119-1.81-1.259-4.809-1.259-34.17V14.29c0-.68 3.148 2.941 28.749 33.037 6.436 7.638 13.291 15.614 15.18 17.82 1.818 2.15 7.135 8.373 11.681 13.747 8.324 9.787 8.394 9.787 10.843 9.618l2.448-.17.35-39.6c.209-21.837.629-39.996.979-40.45 1.679-2.262 3.707-3.393 7.135-4.016 2.798-.509 3.777-.961 3.777-1.64 0-.905-1.259-1.019-14.689-1.019-13.781 0-14.69.057-14.69 1.019 0 .792.7 1.131 3.008 1.414 4.826.622 7.694 2.037 9.233 4.526 1.329 2.15 1.399 3.564 1.609 29.247.14 14.879 0 27.042-.35 26.985-.279 0-12.8-14.2-27.77-31.567l-27.21-31.624H713.7c-6.995 0-12.941.227-13.221.51zM93.034 121.38c-7.485 3.224-11.402 10.579-9.793 18.555 1.609 7.864 7.274 12.05 16.508 12.163 3.427.057 4.966-.226 7.624-1.414 3.778-1.754 4.547-1.867 4.547-.735 0 .452.35 1.018.7 1.188.419.226.699-1.528.699-4.752 0-3.055-.28-5.148-.699-5.148-.35 0-.7.678-.7 1.527 0 .905-.629 2.659-1.399 4.017-1.749 3.111-6.225 4.921-11.052 4.469-4.197-.396-6.365-1.811-8.884-5.771-1.958-3.168-2.098-3.846-2.028-9.334 0-6.788 1.609-10.805 5.316-13.294 2.658-1.811 4.687-2.207 8.814-1.697 4.267.509 8.184 3.62 8.883 7.014.84 3.904 1.749 2.546 1.749-2.545 0-3.055-.28-4.696-.699-4.469-.35.169-.7.735-.7 1.188 0 1.131-.769 1.018-4.267-.623-3.917-1.81-10.842-1.923-14.62-.339zm281.898-.17c-3.218 1.131-6.715 3.903-8.604 6.732-2.098 3.225-2.518 11.767-.839 15.331 2.658 5.601 8.534 8.882 15.878 8.882 7.275 0 14.06-4.187 16.019-9.957 1.189-3.281 1.119-9.221 0-12.389-1.189-3.338-5.036-7.072-8.744-8.429-3.497-1.301-10.282-1.358-13.71-.17zm11.822 1.188c.979.622 2.728 2.602 3.917 4.413 1.888 2.941 2.028 3.733 2.098 8.994 0 4.017-.349 6.563-1.259 8.599-2.658 6.167-9.443 8.712-15.109 5.714-9.094-4.865-9.163-23.025-.07-28.003 2.938-1.584 7.415-1.471 10.423.283zm168.089-1.131c-4.336 1.697-5.945 7.071-3.217 10.861.769 1.075 3.777 3.168 6.995 4.865 3.148 1.698 6.505 3.847 7.554 4.809 3.988 3.903 1.05 9.617-4.966 9.617-5.036 0-8.464-2.828-9.653-8.033-.28-1.188-.77-1.98-1.119-1.81-.91.396-.84 10.409.07 10.409.419 0 .699-.396.699-.849 0-1.131 1.609-1.074 4.407.057 1.189.509 3.777.962 5.736.962 6.785 0 11.542-3.168 11.542-7.694 0-4.469-1.469-5.884-12.591-11.824-5.317-2.828-6.786-4.808-5.876-7.75.489-1.584 1.259-2.263 3.357-3.111 2.519-.962 3.008-1.019 5.596-.283 3.008.848 6.016 4.073 6.016 6.562 0 .736.35 1.301.7 1.301.419 0 .699-1.81.699-4.356 0-4.073-.07-4.299-1.189-3.451-1.049.906-1.329.849-3.777-.169-3.218-1.301-7.835-1.358-10.983-.113zm142.069-.113c-2.798.961-5.107 3.903-5.107 6.505 0 3.451 2.099 5.657 9.164 9.617 7.904 4.413 9.723 6.619 8.394 10.24-.979 2.546-3.498 3.903-7.485 3.903-3.707 0-7.624-3.281-8.324-6.958-.909-4.639-1.749-3.507-1.749 2.206 0 4.696.14 5.375.91 4.526.839-.962 1.119-.962 5.176.17 9.094 2.489 16.438-.792 16.438-7.298 0-3.734-2.168-5.997-9.163-9.73-7.835-4.13-9.164-5.318-9.164-8.09 0-3.281 2.449-5.091 6.716-5.035 3.987.057 6.785 2.093 7.904 5.657 1.119 3.564 2.168 2.546 2.168-2.093 0-4.016-.279-4.582-1.748-2.998-.7.848-1.05.792-3.498-.283-3.218-1.358-7.345-1.528-10.632-.339zm-551.346 6.392c-7.625 16.236-10.493 21.667-12.031 22.742l-1.679 1.075h5.246c5.106 0 5.176 0 3.008-.792-1.959-.679-2.309-1.075-2.309-2.716 0-1.075.7-3.281 1.469-4.865l1.539-2.942 6.646.17 6.715.17 1.888 4.243c1.05 2.319 1.959 4.469 1.959 4.695.07.226-.979.792-2.168 1.245-2.239.792-2.029.792 4.267.848h6.575l-1.679-1.301c-1.119-.792-3.987-6.053-8.324-15.218-3.637-7.693-6.925-14.029-7.345-14.029-.35 0-2.098 2.998-3.777 6.675zm5.106 5.374c1.399 2.999 2.518 5.658 2.518 5.771 0 .169-2.728.283-6.015.283-3.288 0-5.876-.227-5.736-.453.14-.283 1.469-3.055 2.938-6.223 1.539-3.168 3.008-5.601 3.287-5.374.21.283 1.609 2.941 3.008 5.996zm33.856-11.201l2.239.792v13.521c0 14.199-.07 14.369-3.148 14.991-.77.113 4.966.283 12.801.34l14.13.056v-4.525c0-4.809-.98-6.11-1.609-2.15-.49 2.772-2.379 5.091-4.757 5.6-2.868.679-10.073.566-10.982-.169-.63-.509-.839-4.413-.839-14.143v-13.521l2.308-.792c2.098-.735 1.819-.792-5.106-.792s-7.205.057-5.037.792zm46.657-.226c3.008 1.414 3.148 1.923 3.148 14.143 0 6.449-.28 12.389-.7 13.238-.35.792-1.399 1.697-2.238 1.98-1.189.339-.21.509 3.637.509 5.037 0 5.176 0 3.078-.736-1.259-.452-2.378-1.357-2.588-2.093-.7-2.093-.56-24.552.14-23.986.279.339 1.049 1.697 1.678 3.111 2.938 6.902 11.542 24.043 12.032 23.93.35-.057 3.288-5.94 6.575-13.125 3.288-7.128 6.226-13.181 6.575-13.407.28-.226.49 5.035.49 11.767 0 12.898-.07 13.181-3.497 14.199-.56.17 2.098.34 5.945.34 6.646 0 6.855-.057 4.757-.792l-2.308-.792v-27.268l2.308-.792c2.168-.792 2.168-.848-2.588-.679l-4.897.113-2.238 4.809c-1.259 2.659-3.847 8.26-5.806 12.446-3.358 7.411-3.497 7.58-4.267 5.94-.49-.962-2.168-4.639-3.847-8.203a1677.327 1677.327 0 00-5.106-10.749l-2.029-4.243-4.827-.113c-3.847-.113-4.546-.056-3.427.453zm84.989-.283c0 .17.63.736 1.329 1.245.77.565 3.917 4.752 6.995 9.391l5.666 8.429v9.504l-2.238.792c-2.169.735-1.959.792 4.686.792 3.848 0 6.506-.17 5.946-.34-2.938-.905-3.497-1.923-3.497-6.788v-4.809l4.966-7.976c2.728-4.413 5.806-8.599 6.785-9.278l1.889-1.301h-5.596c-3.847 0-5.246.169-4.547.565.56.283 1.609.566 2.238.566 2.659 0 2.169 2.263-2.168 9.504-2.378 3.847-4.407 6.958-4.547 6.845-.839-.735-9.513-14.425-9.513-15.048 0-.396.77-1.018 1.749-1.301.979-.283 1.749-.679 1.749-.849 0-.169-2.659-.282-5.946-.282-3.288 0-5.946.169-5.946.339zm103.386.509l2.239.792v8.938c0 13.747 1.259 17.594 6.435 19.744 3.148 1.301 9.373 1.244 12.801-.226 5.106-2.094 5.526-3.338 6.016-16.519.209-6.393.489-11.654.489-11.767.07-.113 1.189-.509 2.448-.962 2.169-.792 2.029-.792-3.357-.792-5.386.057-5.526.057-3.358.849 1.889.622 2.309 1.131 2.728 3.337.21 1.471.28 6.223.14 10.636-.35 9.674-1.679 12.898-5.736 14.256-5.106 1.754-9.723.735-11.751-2.546-1.05-1.697-1.259-3.677-1.259-13.464v-11.484l2.308-.792c2.098-.735 1.819-.792-5.106-.792s-7.205.057-5.037.792zm53.162.226l2.239 1.188v12.842c0 7.128-.28 13.181-.56 13.577-.28.396-1.329.905-2.238 1.245-1.329.396-.07.566 5.246.566 5.316 0 6.575-.17 5.246-.566-.909-.34-1.959-.849-2.238-1.245-.28-.396-.56-3.281-.56-6.505v-5.771h4.197c3.917 0 4.197.113 5.246 1.641.56.962 1.679 3.79 2.379 6.336 1.608 5.431 3.077 6.958 6.785 6.902 2.518-.057 5.946-1.98 4.966-2.772-.21-.17-.909.056-1.539.565-2.378 1.867-3.427.905-5.106-4.639-1.679-5.657-2.938-7.297-5.946-7.92l-2.238-.509 3.218-1.131c7.484-2.716 8.463-10.24 1.748-13.521-1.818-.905-3.847-1.075-12.661-1.244l-10.492-.17 2.308 1.131zm14.9.057c3.567.792 5.106 2.885 5.106 6.789-.07 1.697-.42 3.733-.909 4.412-1.12 1.754-4.827 2.942-8.814 2.942h-3.148v-6.449c0-8.373.909-9.222 7.765-7.694zm106.953-.396c.979.339 1.959.905 2.238 1.245.28.282.56 6.505.56 13.747v13.181l-2.238.792c-2.099.735-.98.792 11.751.848h14.06l-.07-4.243c-.07-4.469-.699-5.487-1.469-2.432-1.259 4.752-3.707 6.11-10.912 6.11-5.876 0-6.225-.453-6.225-7.977v-6.166h3.077c3.428 0 5.317 1.075 5.317 2.998 0 .679.349 1.641.699 2.093.49.566.7-1.188.7-5.544 0-3.847-.28-6.336-.7-6.336-.35 0-.699.679-.699 1.584 0 2.716-1.749 4.073-5.317 4.073h-3.077v-6.11c0-4.016.279-6.336.839-6.788.49-.396 3.008-.679 6.505-.679 6.506 0 7.835.622 8.534 4.186.7 3.564 1.609 2.829 1.609-1.301v-4.016l-13.43.056c-10.773 0-13.151.17-11.752.679zm60.647-.339c-.21.283-3.078 6.166-6.436 13.181-6.925 14.426-6.995 14.595-9.023 15.953-1.399.962-1.329.962 3.777.962s5.176 0 3.008-.792c-2.798-.962-3.008-2.659-.84-7.354l1.399-3.112h13.571l2.028 4.809c1.12 2.659 1.889 4.921 1.749 5.091-.21.113-1.119.453-2.028.792-1.33.396-.28.566 4.546.566 6.086.056 6.226 0 4.757-.962-1.399-.848-4.547-6.845-13.57-26.023-1.609-3.338-2.239-4.016-2.938-3.111zm1.888 11.71c1.399 3.055 2.449 5.657 2.309 5.827-.21.113-2.798.17-5.876.056l-5.596-.169 2.868-6.053c1.539-3.338 3.008-5.884 3.287-5.658.28.227 1.609 2.886 3.008 5.997zm-644.379-6.732c-6.086 1.527-11.052 5.544-12.311 9.957-.7 2.489 1.259 2.432 3.357-.057 4.058-4.978 12.801-5.261 24.063-.849 9.723 3.791 13.64 4.809 18.957 4.809 7.694-.057 14.13-3.225 16.928-8.373 2.518-4.752 1.399-5.317-3.078-1.584-5.806 4.866-11.962 4.752-25.602-.509-10.842-4.13-16.158-4.978-22.314-3.394zm731.677.226c-6.226 1.754-10.353 5.148-11.682 9.731-.769 2.432 1.329 2.489 3.218.056 2.588-3.168 5.526-4.186 11.821-3.903 4.757.169 6.156.565 14.69 3.847l9.443 3.62h6.645c5.177 0 7.205-.226 9.094-1.075 4.826-2.036 8.114-5.487 9.373-9.56.35-1.245.21-1.528-.909-1.528-.77 0-1.539.509-1.819 1.132-.629 1.64-4.267 3.847-7.554 4.582-4.407.962-9.793-.057-19.377-3.734-11.541-4.356-16.298-5.035-22.943-3.168z" fill="#535353"/>
</svg>
