<svg fill="none" xmlns="http://www.w3.org/2000/svg" viewBox="0 0 167 34">
  <mask id="tflk9yMTQHRZa" maskUnits="userSpaceOnUse" x="0" y="0" width="167" height="34" fill="#000">
    <path fill="#fff" d="M0 0h167v34H0z"/>
    <path d="M81.401 1.126c-3.213.607-5.5 2.177-6.947 4.746-2.012 3.592-1.375 8.707 1.404 11.36 1.867 1.76 4.429 2.652 7.642 2.663 2.272.012 3.329-.261 5.558-1.439 1.143-.582 1.418-.5 1.693.571.13.535.203.619.463.583.203-.024.319-.119.304-.25l-.028-3.116-.03-2.914h-.36c-.29 0-.362.071-.434.44-.464 2.379-.768 3.045-1.882 4.044-1.13 1.047-3.155 1.653-5.095 1.558-2.764-.154-4.935-1.998-5.934-5.067-.362-1.07-.39-1.344-.39-3.711-.015-2.676.057-3.188.708-4.877 1.202-3.104 3.633-4.58 6.904-4.175 1.433.19 2.707.702 3.59 1.44 1.201 1.01 1.52 1.593 2.026 3.71.145.62.203.69.521.69h.347v-2.77c0-1.512.044-2.88.087-3.034.073-.214.03-.262-.26-.262-.319 0-.39.095-.608.714-.13.404-.333.75-.449.785-.115.036-.405-.024-.637-.143-2.735-1.427-3.329-1.605-5.586-1.665-1.144-.024-2.041.012-2.606.119zm46.533-.048c-3.951.607-6.918 3.081-7.989 6.638-.449 1.474-.449 4.52.014 5.911 1.202 3.687 4.212 5.864 8.583 6.245 4.617.392 8.438-1.297 10.392-4.58.912-1.546 1.216-2.76 1.216-4.995.014-1.951-.116-2.7-.68-4.044-.666-1.618-2.316-3.295-4.082-4.164-1.462-.713-2.909-1.022-4.993-1.07-.999-.024-2.099 0-2.461.06zm4.024.762c3.126 1.308 4.892 5.376 4.371 10.039-.318 2.914-1.303 5.043-2.953 6.387-1.071.892-1.968 1.19-3.502 1.178-1.998-.024-3.749-1.071-4.936-2.974-1.129-1.808-1.491-3.26-1.491-5.995 0-3.342.71-5.543 2.331-7.315 1.143-1.249 2.359-1.737 4.183-1.69.998.037 1.375.108 1.997.37zm-95.555-.024a89.94 89.94 0 01-1.26 2.712c-.535 1.142-1.62 3.414-2.388 5.055-3.806 8.136-3.835 8.195-4.573 8.826-.246.202-.637.44-.854.523-.246.083-.42.226-.42.357 0 .214.16.226 3.054.226 2.822 0 3.04-.012 2.996-.214-.03-.12-.203-.214-.405-.238-.927-.083-1.621-.31-1.983-.666-.348-.345-.362-.428-.29-1.261.058-.702.246-1.26.912-2.712l.854-1.808 3.662.024 3.676.036.926 2.081c1.607 3.58 1.636 3.759.637 4.092-.318.107-.781.19-1.013.19-.333 0-.434.048-.434.238 0 .238.101.238 4.024.238 3.82 0 4.023-.012 4.038-.226.014-.155-.13-.25-.536-.357-.347-.083-.723-.297-.94-.547-.218-.214-1.491-2.748-2.837-5.614-1.36-2.867-3.127-6.626-3.952-8.362l-1.505-3.152-.55-.036c-.564-.036-.564-.036-.84.595zm2.59 10.05l.087.274h-6.802l.347-.773c.203-.428.535-1.13.738-1.582.203-.44.724-1.546 1.144-2.474.42-.916.883-1.88 1.013-2.14l.246-.465 1.563 3.45a446.793 446.793 0 011.664 3.71zM1 1.554c0 .155.16.226.68.298.362.047.825.13 1.013.19.753.238.768.321.768 8.41 0 4.912-.058 7.6-.145 7.838-.188.416-.637.618-1.621.713-.55.06-.695.12-.695.286 0 .214.203.226 4.27.226 4.067 0 4.27-.012 4.27-.226 0-.167-.145-.238-.637-.286a6.42 6.42 0 01-1-.214c-.694-.261-.752-.583-.752-4.508v-3.628h9.495l-.014 3.652c0 2.189-.073 3.783-.16 3.997-.159.392-.564.57-1.577.713-.449.06-.666.155-.695.298-.043.19.26.202 4.299.202 4.154 0 4.356-.012 4.356-.226 0-.167-.145-.226-.695-.286-.97-.095-1.432-.297-1.65-.725-.13-.274-.188-1.998-.231-7.03-.029-3.663-.014-7.1.043-7.648.13-1.26.377-1.534 1.593-1.725.593-.095.868-.202.868-.32 0-.155-.565-.18-4.27-.18-3.69 0-4.27.025-4.27.18 0 .118.29.225.912.332 1.505.274 1.477.19 1.477 4.568v3.663H7.064l.044-3.675C7.166 2.1 7.122 2.22 8.642 1.91c.637-.13.897-.238.897-.369 0-.178-.42-.19-4.27-.202C1.276 1.34 1 1.352 1 1.554zm50.079 0c0 .155.16.226.68.298 1.042.13 1.448.344 1.621.868.217.606.217 14.785 0 15.403-.173.547-.593.785-1.563.88-.622.06-.738.107-.738.322v.25l8.337-.036 8.351-.024-.101-.63c-.044-.334-.087-1.618-.087-2.855v-2.225h-.362c-.304 0-.362.06-.362.345 0 .667-.709 2.653-1.158 3.236-.506.63-1.462 1.225-2.373 1.439-.362.095-1.506.155-2.866.155-2.07 0-2.301-.024-2.678-.25-.217-.131-.448-.38-.492-.535-.058-.155-.101-3.616-.116-7.684-.014-8.921-.13-8.326 1.723-8.648.535-.083.81-.19.84-.32.043-.18-.363-.203-4.3-.203-4.081 0-4.356.012-4.356.214zm45.447.024c0 .119.145.262.333.321.608.202 1.1.797 2.895 3.52.984 1.5 1.997 3.034 2.229 3.39.246.358.941 1.404 1.549 2.332l1.1 1.677v2.272c0 3.402-.16 3.759-1.723 3.913-.593.06-.738.107-.738.286 0 .214.203.226 4.27.226 4.067 0 4.27-.012 4.27-.226 0-.179-.145-.226-.753-.286-.897-.095-1.433-.38-1.592-.868-.073-.19-.116-1.725-.116-3.414v-3.068l2.186-3.593c1.215-1.974 2.446-3.949 2.75-4.377.564-.809 1.621-1.772 1.939-1.772.203 0 .405-.321.289-.464-.028-.047-1.403-.095-3.039-.107-2.793-.012-2.967 0-2.967.202 0 .179.188.25.897.369.652.095.999.238 1.317.488.406.345.42.392.362 1.201-.072.785-.202 1.035-2.185 4.33-1.173 1.927-2.171 3.497-2.229 3.497-.058-.012-.246-.238-.406-.512-.159-.273-1.317-2.105-2.561-4.08-1.245-1.962-2.316-3.71-2.36-3.89-.188-.594.261-.891 1.708-1.093.391-.048.536-.131.536-.298 0-.214-.174-.226-3.98-.202-3.764.012-3.98.024-3.98.226zm49.413-.131c-.144.202.073.31.927.452.492.071.97.238 1.114.369.449.404.536 1.915.478 8.778-.044 5.84-.072 6.673-.29 7.065-.26.476-.593.666-1.548.869-.42.083-.652.202-.681.333-.028.19.232.202 3.069.202 2.924 0 3.097-.012 3.097-.226 0-.179-.144-.226-.738-.286-.955-.095-1.592-.404-1.896-.927-.232-.381-.26-1.011-.26-7.185V4.004c0-.142.651.619 5.948 6.947 1.332 1.606 2.75 3.283 3.141 3.747.376.452 1.476 1.76 2.417 2.89 1.722 2.058 1.737 2.058 2.244 2.022l.506-.036.072-8.326c.044-4.591.131-8.41.203-8.504.347-.476.767-.714 1.476-.845.579-.107.782-.202.782-.345 0-.19-.261-.214-3.039-.214-2.852 0-3.04.012-3.04.214 0 .167.145.238.622.298.999.13 1.593.428 1.911.951.275.452.289.75.333 6.15.029 3.128 0 5.685-.073 5.673-.057 0-2.648-2.985-5.746-6.637l-5.63-6.649h-2.663c-1.447 0-2.678.048-2.736.107zM20.25 26.52c-1.549.679-2.36 2.225-2.026 3.902.333 1.653 1.505 2.534 3.416 2.558.709.011 1.027-.048 1.577-.298.782-.369.94-.392.94-.154 0 .095.073.214.146.25.087.047.144-.322.144-1 0-.642-.057-1.082-.144-1.082-.073 0-.145.142-.145.32 0 .191-.13.56-.29.845-.361.655-1.288 1.035-2.286.94-.869-.083-1.317-.38-1.839-1.213-.405-.666-.434-.809-.42-1.963 0-1.427.334-2.272 1.1-2.795.55-.38.97-.464 1.824-.357.883.107 1.694.762 1.838 1.475.174.82.362.535.362-.535 0-.642-.057-.987-.144-.94-.073.036-.145.155-.145.25 0 .238-.16.214-.883-.13-.81-.381-2.243-.405-3.025-.072zm58.329-.035c-.666.238-1.39.82-1.78 1.416-.434.677-.521 2.474-.174 3.223.55 1.177 1.766 1.867 3.285 1.867 1.506 0 2.91-.88 3.315-2.093.246-.69.232-1.939 0-2.605-.246-.702-1.042-1.487-1.81-1.772-.723-.274-2.127-.286-2.836-.036zm2.446.25c.203.13.564.547.81.928.391.618.42.785.435 1.89 0 .845-.073 1.38-.26 1.809-.55 1.296-1.955 1.832-3.127 1.201-1.882-1.023-1.896-4.84-.015-5.888.608-.333 1.535-.309 2.157.06zm34.78-.238c-.897.357-1.23 1.487-.666 2.284.16.226.782.666 1.448 1.023.651.357 1.346.809 1.563 1.01.825.821.217 2.023-1.028 2.023-1.042 0-1.751-.595-1.997-1.69-.058-.25-.159-.416-.232-.38-.188.083-.173 2.189.015 2.189.087 0 .145-.084.145-.179 0-.238.333-.226.911.012.247.107.782.202 1.187.202 1.404 0 2.388-.666 2.388-1.617 0-.94-.303-1.237-2.605-2.486-1.1-.595-1.404-1.011-1.216-1.63.102-.333.261-.476.695-.654.521-.202.623-.214 1.158-.06.622.179 1.245.857 1.245 1.38 0 .155.072.274.145.274.086 0 .144-.38.144-.916 0-.856-.014-.904-.246-.726-.217.19-.275.179-.781-.035-.666-.274-1.621-.286-2.273-.024zm29.396-.024c-.579.202-1.056.82-1.056 1.368 0 .726.434 1.19 1.896 2.022 1.635.928 2.012 1.392 1.737 2.153-.203.535-.724.82-1.549.82-.767 0-1.578-.69-1.722-1.462-.189-.976-.362-.738-.362.464 0 .987.029 1.13.188.951.174-.202.231-.202 1.071.036 1.882.523 3.401-.167 3.401-1.535 0-.784-.448-1.26-1.896-2.045-1.621-.869-1.896-1.119-1.896-1.701 0-.69.507-1.07 1.39-1.059.825.012 1.404.44 1.635 1.19.232.749.449.535.449-.44 0-.845-.058-.964-.362-.631-.145.178-.217.167-.724-.06-.665-.285-1.519-.32-2.2-.07zM31.12 27.817c-1.578 3.414-2.171 4.556-2.49 4.782l-.347.226h1.085c1.057 0 1.072 0 .623-.167-.405-.142-.478-.226-.478-.57 0-.227.145-.69.304-1.024l.319-.618 2.764.071.39.892c.218.488.406.94.406.988.015.047-.203.166-.449.261-.463.167-.42.167.883.179h1.36l-.347-.274c-.231-.166-.825-1.273-1.722-3.2-.753-1.617-1.433-2.95-1.52-2.95-.072 0-.434.631-.781 1.404zm1.056 1.13c.29.63.521 1.19.521 1.213 0 .036-.564.06-1.244.06s-1.216-.048-1.187-.095c.029-.06.304-.642.608-1.309.318-.666.622-1.177.68-1.13.043.06.333.619.622 1.261zm7.006-2.355l.463.167v2.843c0 2.985-.015 3.02-.652 3.152-.159.023 1.028.059 2.65.07l2.923.013v-.952c0-1.01-.203-1.284-.333-.452-.101.583-.492 1.07-.984 1.178-.594.143-2.085.119-2.273-.036-.13-.107-.173-.928-.173-2.974V26.76l.477-.167c.434-.154.377-.166-1.056-.166s-1.491.012-1.042.166zm9.654-.047c.622.297.65.404.65 2.973 0 1.356-.057 2.605-.144 2.783a.905.905 0 01-.463.417c-.246.071-.043.107.753.107 1.042 0 1.07 0 .636-.155-.26-.095-.492-.285-.535-.44-.145-.44-.116-5.162.029-5.043.058.071.217.357.347.654.608 1.451 2.388 5.055 2.49 5.032.072-.012.68-1.25 1.36-2.76.68-1.499 1.288-2.771 1.36-2.82.059-.047.102 1.06.102 2.475 0 2.712-.014 2.771-.724 2.986-.115.035.435.07 1.23.07 1.376 0 1.42-.011.985-.166l-.478-.166v-5.733l.478-.167c.449-.166.449-.178-.536-.143l-1.013.024-.463 1.011c-.26.56-.796 1.737-1.201 2.617-.695 1.558-.724 1.594-.883 1.249-.102-.202-.449-.975-.796-1.725a347.81 347.81 0 00-1.057-2.26l-.42-.892-.998-.024c-.796-.023-.941-.012-.71.096zm17.585-.06c0 .036.13.155.275.262.16.119.81.999 1.447 1.974l1.173 1.773v1.998l-.463.166c-.45.155-.406.167.97.167.795 0 1.345-.036 1.23-.072-.608-.19-.724-.404-.724-1.427v-1.01l1.028-1.678c.564-.928 1.2-1.808 1.403-1.95l.391-.274h-1.158c-.796 0-1.085.035-.94.119.115.06.332.119.463.119.55 0 .448.475-.449 1.998-.492.809-.912 1.463-.94 1.44-.174-.155-1.97-3.034-1.97-3.165 0-.083.16-.214.363-.273.202-.06.362-.143.362-.179 0-.035-.55-.06-1.23-.06-.68 0-1.23.036-1.23.072zm21.392.107l.463.167v1.879c0 2.89.26 3.7 1.332 4.151.651.274 1.94.262 2.649-.047 1.056-.44 1.143-.702 1.244-3.474.044-1.344.102-2.45.102-2.474.014-.024.246-.107.506-.202.449-.166.42-.166-.694-.166-1.115.012-1.144.012-.695.178.39.13.477.238.564.702.044.309.058 1.308.03 2.236-.073 2.034-.348 2.712-1.188 2.997-1.056.37-2.011.155-2.431-.535-.217-.357-.26-.773-.26-2.83v-2.415l.477-.167c.434-.154.376-.166-1.057-.166-1.433 0-1.49.012-1.042.166zm11 .048l.463.25v2.7c0 1.498-.058 2.771-.115 2.854-.058.084-.276.19-.464.262-.275.083-.014.119 1.086.119s1.36-.036 1.085-.12c-.188-.07-.405-.177-.463-.26-.058-.084-.116-.69-.116-1.369v-1.213h.869c.81 0 .868.024 1.085.345.116.202.348.797.493 1.332.332 1.142.636 1.463 1.403 1.451.522-.011 1.231-.416 1.028-.583-.043-.035-.188.012-.318.12-.492.392-.71.19-1.057-.976-.347-1.19-.608-1.534-1.23-1.665l-.463-.107.665-.238c1.549-.571 1.752-2.153.362-2.843-.376-.19-.796-.226-2.619-.262l-2.172-.035.478.238zm3.083.012c.738.166 1.057.606 1.057 1.427-.015.357-.087.785-.189.928-.231.368-.998.618-1.823.618h-.652V28.27c0-1.76.189-1.939 1.607-1.617zm22.13-.084c.203.072.406.19.464.262.057.06.115 1.368.115 2.89v2.772l-.463.166c-.434.155-.202.167 2.432.179h2.909l-.015-.892c-.014-.94-.144-1.154-.303-.512-.261 1-.768 1.285-2.258 1.285-1.216 0-1.289-.095-1.289-1.677v-1.297h.637c.71 0 1.1.226 1.1.63 0 .143.073.346.145.44.101.12.145-.25.145-1.165 0-.809-.058-1.332-.145-1.332-.072 0-.145.143-.145.333 0 .57-.362.856-1.1.856h-.637v-1.284c0-.845.058-1.332.174-1.428.101-.083.623-.142 1.346-.142 1.346 0 1.621.13 1.766.88.145.75.333.595.333-.274v-.844l-2.779.012c-2.229 0-2.721.035-2.432.142zm12.549-.071c-.043.06-.637 1.297-1.332 2.771-1.432 3.033-1.447 3.07-1.867 3.355-.289.202-.275.202.782.202 1.056 0 1.071 0 .622-.167-.579-.202-.622-.559-.173-1.546l.289-.654h2.808l.42 1.01c.231.56.39 1.036.362 1.071a7.155 7.155 0 01-.42.167c-.275.083-.058.119.941.119 1.259.012 1.288 0 .984-.202-.29-.179-.941-1.44-2.808-5.472-.333-.702-.463-.844-.608-.654zm.391 2.462c.289.643.506 1.19.477 1.225-.043.024-.579.036-1.215.012l-1.158-.036.593-1.272c.319-.702.623-1.237.68-1.19.058.048.333.607.623 1.261zM3.634 27.544c-1.259.32-2.287 1.165-2.547 2.093-.145.523.26.512.695-.012.839-1.047 2.648-1.106 4.979-.178 2.011.797 2.822 1.01 3.922 1.01 1.592-.011 2.924-.677 3.502-1.76.522-.999.29-1.118-.636-.333-1.202 1.023-2.475 1-5.298-.107-2.243-.868-3.343-1.046-4.617-.713zm151.395.047c-1.288.369-2.142 1.083-2.417 2.046-.159.512.275.523.666.012.535-.666 1.143-.88 2.446-.82.984.035 1.273.118 3.039.808l1.954.761h1.375c1.071 0 1.491-.047 1.882-.226.998-.428 1.679-1.153 1.939-2.01.073-.261.044-.32-.188-.32a.432.432 0 00-.376.237c-.131.345-.883.809-1.563.963-.912.203-2.027-.012-4.01-.785-2.388-.916-3.372-1.058-4.747-.666z"/>
  </mask>
  <path d="M81.401 1.126c-3.213.607-5.5 2.177-6.947 4.746-2.012 3.592-1.375 8.707 1.404 11.36 1.867 1.76 4.429 2.652 7.642 2.663 2.272.012 3.329-.261 5.558-1.439 1.143-.582 1.418-.5 1.693.571.13.535.203.619.463.583.203-.024.319-.119.304-.25l-.028-3.116-.03-2.914h-.36c-.29 0-.362.071-.434.44-.464 2.379-.768 3.045-1.882 4.044-1.13 1.047-3.155 1.653-5.095 1.558-2.764-.154-4.935-1.998-5.934-5.067-.362-1.07-.39-1.344-.39-3.711-.015-2.676.057-3.188.708-4.877 1.202-3.104 3.633-4.58 6.904-4.175 1.433.19 2.707.702 3.59 1.44 1.201 1.01 1.52 1.593 2.026 3.71.145.62.203.69.521.69h.347v-2.77c0-1.512.044-2.88.087-3.034.073-.214.03-.262-.26-.262-.319 0-.39.095-.608.714-.13.404-.333.75-.449.785-.115.036-.405-.024-.637-.143-2.735-1.427-3.329-1.605-5.586-1.665-1.144-.024-2.041.012-2.606.119zm46.533-.048c-3.951.607-6.918 3.081-7.989 6.638-.449 1.474-.449 4.52.014 5.911 1.202 3.687 4.212 5.864 8.583 6.245 4.617.392 8.438-1.297 10.392-4.58.912-1.546 1.216-2.76 1.216-4.995.014-1.951-.116-2.7-.68-4.044-.666-1.618-2.316-3.295-4.082-4.164-1.462-.713-2.909-1.022-4.993-1.07-.999-.024-2.099 0-2.461.06zm4.024.762c3.126 1.308 4.892 5.376 4.371 10.039-.318 2.914-1.303 5.043-2.953 6.387-1.071.892-1.968 1.19-3.502 1.178-1.998-.024-3.749-1.071-4.936-2.974-1.129-1.808-1.491-3.26-1.491-5.995 0-3.342.71-5.543 2.331-7.315 1.143-1.249 2.359-1.737 4.183-1.69.998.037 1.375.108 1.997.37zm-95.555-.024a89.94 89.94 0 01-1.26 2.712c-.535 1.142-1.62 3.414-2.388 5.055-3.806 8.136-3.835 8.195-4.573 8.826-.246.202-.637.44-.854.523-.246.083-.42.226-.42.357 0 .214.16.226 3.054.226 2.822 0 3.04-.012 2.996-.214-.03-.12-.203-.214-.405-.238-.927-.083-1.621-.31-1.983-.666-.348-.345-.362-.428-.29-1.261.058-.702.246-1.26.912-2.712l.854-1.808 3.662.024 3.676.036.926 2.081c1.607 3.58 1.636 3.759.637 4.092-.318.107-.781.19-1.013.19-.333 0-.434.048-.434.238 0 .238.101.238 4.024.238 3.82 0 4.023-.012 4.038-.226.014-.155-.13-.25-.536-.357-.347-.083-.723-.297-.94-.547-.218-.214-1.491-2.748-2.837-5.614-1.36-2.867-3.127-6.626-3.952-8.362l-1.505-3.152-.55-.036c-.564-.036-.564-.036-.84.595zm2.59 10.05l.087.274h-6.802l.347-.773c.203-.428.535-1.13.738-1.582.203-.44.724-1.546 1.144-2.474.42-.916.883-1.88 1.013-2.14l.246-.465 1.563 3.45a446.793 446.793 0 011.664 3.71zM1 1.554c0 .155.16.226.68.298.362.047.825.13 1.013.19.753.238.768.321.768 8.41 0 4.912-.058 7.6-.145 7.838-.188.416-.637.618-1.621.713-.55.06-.695.12-.695.286 0 .214.203.226 4.27.226 4.067 0 4.27-.012 4.27-.226 0-.167-.145-.238-.637-.286a6.42 6.42 0 01-1-.214c-.694-.261-.752-.583-.752-4.508v-3.628h9.495l-.014 3.652c0 2.189-.073 3.783-.16 3.997-.159.392-.564.57-1.577.713-.449.06-.666.155-.695.298-.043.19.26.202 4.299.202 4.154 0 4.356-.012 4.356-.226 0-.167-.145-.226-.695-.286-.97-.095-1.432-.297-1.65-.725-.13-.274-.188-1.998-.231-7.03-.029-3.663-.014-7.1.043-7.648.13-1.26.377-1.534 1.593-1.725.593-.095.868-.202.868-.32 0-.155-.565-.18-4.27-.18-3.69 0-4.27.025-4.27.18 0 .118.29.225.912.332 1.505.274 1.477.19 1.477 4.568v3.663H7.064l.044-3.675C7.166 2.1 7.122 2.22 8.642 1.91c.637-.13.897-.238.897-.369 0-.178-.42-.19-4.27-.202C1.276 1.34 1 1.352 1 1.554zm50.079 0c0 .155.16.226.68.298 1.042.13 1.448.344 1.621.868.217.606.217 14.785 0 15.403-.173.547-.593.785-1.563.88-.622.06-.738.107-.738.322v.25l8.337-.036 8.351-.024-.101-.63c-.044-.334-.087-1.618-.087-2.855v-2.225h-.362c-.304 0-.362.06-.362.345 0 .667-.709 2.653-1.158 3.236-.506.63-1.462 1.225-2.373 1.439-.362.095-1.506.155-2.866.155-2.07 0-2.301-.024-2.678-.25-.217-.131-.448-.38-.492-.535-.058-.155-.101-3.616-.116-7.684-.014-8.921-.13-8.326 1.723-8.648.535-.083.81-.19.84-.32.043-.18-.363-.203-4.3-.203-4.081 0-4.356.012-4.356.214zm45.447.024c0 .119.145.262.333.321.608.202 1.1.797 2.895 3.52.984 1.5 1.997 3.034 2.229 3.39.246.358.941 1.404 1.549 2.332l1.1 1.677v2.272c0 3.402-.16 3.759-1.723 3.913-.593.06-.738.107-.738.286 0 .214.203.226 4.27.226 4.067 0 4.27-.012 4.27-.226 0-.179-.145-.226-.753-.286-.897-.095-1.433-.38-1.592-.868-.073-.19-.116-1.725-.116-3.414v-3.068l2.186-3.593c1.215-1.974 2.446-3.949 2.75-4.377.564-.809 1.621-1.772 1.939-1.772.203 0 .405-.321.289-.464-.028-.047-1.403-.095-3.039-.107-2.793-.012-2.967 0-2.967.202 0 .179.188.25.897.369.652.095.999.238 1.317.488.406.345.42.392.362 1.201-.072.785-.202 1.035-2.185 4.33-1.173 1.927-2.171 3.497-2.229 3.497-.058-.012-.246-.238-.406-.512-.159-.273-1.317-2.105-2.561-4.08-1.245-1.962-2.316-3.71-2.36-3.89-.188-.594.261-.891 1.708-1.093.391-.048.536-.131.536-.298 0-.214-.174-.226-3.98-.202-3.764.012-3.98.024-3.98.226zm49.413-.131c-.144.202.073.31.927.452.492.071.97.238 1.114.369.449.404.536 1.915.478 8.778-.044 5.84-.072 6.673-.29 7.065-.26.476-.593.666-1.548.869-.42.083-.652.202-.681.333-.028.19.232.202 3.069.202 2.924 0 3.097-.012 3.097-.226 0-.179-.144-.226-.738-.286-.955-.095-1.592-.404-1.896-.927-.232-.381-.26-1.011-.26-7.185V4.004c0-.142.651.619 5.948 6.947 1.332 1.606 2.75 3.283 3.141 3.747.376.452 1.476 1.76 2.417 2.89 1.722 2.058 1.737 2.058 2.244 2.022l.506-.036.072-8.326c.044-4.591.131-8.41.203-8.504.347-.476.767-.714 1.476-.845.579-.107.782-.202.782-.345 0-.19-.261-.214-3.039-.214-2.852 0-3.04.012-3.04.214 0 .167.145.238.622.298.999.13 1.593.428 1.911.951.275.452.289.75.333 6.15.029 3.128 0 5.685-.073 5.673-.057 0-2.648-2.985-5.746-6.637l-5.63-6.649h-2.663c-1.447 0-2.678.048-2.736.107zM20.25 26.52c-1.549.679-2.36 2.225-2.026 3.902.333 1.653 1.505 2.534 3.416 2.558.709.011 1.027-.048 1.577-.298.782-.369.94-.392.94-.154 0 .095.073.214.146.25.087.047.144-.322.144-1 0-.642-.057-1.082-.144-1.082-.073 0-.145.142-.145.32 0 .191-.13.56-.29.845-.361.655-1.288 1.035-2.286.94-.869-.083-1.317-.38-1.839-1.213-.405-.666-.434-.809-.42-1.963 0-1.427.334-2.272 1.1-2.795.55-.38.97-.464 1.824-.357.883.107 1.694.762 1.838 1.475.174.82.362.535.362-.535 0-.642-.057-.987-.144-.94-.073.036-.145.155-.145.25 0 .238-.16.214-.883-.13-.81-.381-2.243-.405-3.025-.072zm58.329-.035c-.666.238-1.39.82-1.78 1.416-.434.677-.521 2.474-.174 3.223.55 1.177 1.766 1.867 3.285 1.867 1.506 0 2.91-.88 3.315-2.093.246-.69.232-1.939 0-2.605-.246-.702-1.042-1.487-1.81-1.772-.723-.274-2.127-.286-2.836-.036zm2.446.25c.203.13.564.547.81.928.391.618.42.785.435 1.89 0 .845-.073 1.38-.26 1.809-.55 1.296-1.955 1.832-3.127 1.201-1.882-1.023-1.896-4.84-.015-5.888.608-.333 1.535-.309 2.157.06zm34.78-.238c-.897.357-1.23 1.487-.666 2.284.16.226.782.666 1.448 1.023.651.357 1.346.809 1.563 1.01.825.821.217 2.023-1.028 2.023-1.042 0-1.751-.595-1.997-1.69-.058-.25-.159-.416-.232-.38-.188.083-.173 2.189.015 2.189.087 0 .145-.084.145-.179 0-.238.333-.226.911.012.247.107.782.202 1.187.202 1.404 0 2.388-.666 2.388-1.617 0-.94-.303-1.237-2.605-2.486-1.1-.595-1.404-1.011-1.216-1.63.102-.333.261-.476.695-.654.521-.202.623-.214 1.158-.06.622.179 1.245.857 1.245 1.38 0 .155.072.274.145.274.086 0 .144-.38.144-.916 0-.856-.014-.904-.246-.726-.217.19-.275.179-.781-.035-.666-.274-1.621-.286-2.273-.024zm29.396-.024c-.579.202-1.056.82-1.056 1.368 0 .726.434 1.19 1.896 2.022 1.635.928 2.012 1.392 1.737 2.153-.203.535-.724.82-1.549.82-.767 0-1.578-.69-1.722-1.462-.189-.976-.362-.738-.362.464 0 .987.029 1.13.188.951.174-.202.231-.202 1.071.036 1.882.523 3.401-.167 3.401-1.535 0-.784-.448-1.26-1.896-2.045-1.621-.869-1.896-1.119-1.896-1.701 0-.69.507-1.07 1.39-1.059.825.012 1.404.44 1.635 1.19.232.749.449.535.449-.44 0-.845-.058-.964-.362-.631-.145.178-.217.167-.724-.06-.665-.285-1.519-.32-2.2-.07zM31.12 27.817c-1.578 3.414-2.171 4.556-2.49 4.782l-.347.226h1.085c1.057 0 1.072 0 .623-.167-.405-.142-.478-.226-.478-.57 0-.227.145-.69.304-1.024l.319-.618 2.764.071.39.892c.218.488.406.94.406.988.015.047-.203.166-.449.261-.463.167-.42.167.883.179h1.36l-.347-.274c-.231-.166-.825-1.273-1.722-3.2-.753-1.617-1.433-2.95-1.52-2.95-.072 0-.434.631-.781 1.404zm1.056 1.13c.29.63.521 1.19.521 1.213 0 .036-.564.06-1.244.06s-1.216-.048-1.187-.095c.029-.06.304-.642.608-1.309.318-.666.622-1.177.68-1.13.043.06.333.619.622 1.261zm7.006-2.355l.463.167v2.843c0 2.985-.015 3.02-.652 3.152-.159.023 1.028.059 2.65.07l2.923.013v-.952c0-1.01-.203-1.284-.333-.452-.101.583-.492 1.07-.984 1.178-.594.143-2.085.119-2.273-.036-.13-.107-.173-.928-.173-2.974V26.76l.477-.167c.434-.154.377-.166-1.056-.166s-1.491.012-1.042.166zm9.654-.047c.622.297.65.404.65 2.973 0 1.356-.057 2.605-.144 2.783a.905.905 0 01-.463.417c-.246.071-.043.107.753.107 1.042 0 1.07 0 .636-.155-.26-.095-.492-.285-.535-.44-.145-.44-.116-5.162.029-5.043.058.071.217.357.347.654.608 1.451 2.388 5.055 2.49 5.032.072-.012.68-1.25 1.36-2.76.68-1.499 1.288-2.771 1.36-2.82.059-.047.102 1.06.102 2.475 0 2.712-.014 2.771-.724 2.986-.115.035.435.07 1.23.07 1.376 0 1.42-.011.985-.166l-.478-.166v-5.733l.478-.167c.449-.166.449-.178-.536-.143l-1.013.024-.463 1.011c-.26.56-.796 1.737-1.201 2.617-.695 1.558-.724 1.594-.883 1.249-.102-.202-.449-.975-.796-1.725a347.81 347.81 0 00-1.057-2.26l-.42-.892-.998-.024c-.796-.023-.941-.012-.71.096zm17.585-.06c0 .036.13.155.275.262.16.119.81.999 1.447 1.974l1.173 1.773v1.998l-.463.166c-.45.155-.406.167.97.167.795 0 1.345-.036 1.23-.072-.608-.19-.724-.404-.724-1.427v-1.01l1.028-1.678c.564-.928 1.2-1.808 1.403-1.95l.391-.274h-1.158c-.796 0-1.085.035-.94.119.115.06.332.119.463.119.55 0 .448.475-.449 1.998-.492.809-.912 1.463-.94 1.44-.174-.155-1.97-3.034-1.97-3.165 0-.083.16-.214.363-.273.202-.06.362-.143.362-.179 0-.035-.55-.06-1.23-.06-.68 0-1.23.036-1.23.072zm21.392.107l.463.167v1.879c0 2.89.26 3.7 1.332 4.151.651.274 1.94.262 2.649-.047 1.056-.44 1.143-.702 1.244-3.474.044-1.344.102-2.45.102-2.474.014-.024.246-.107.506-.202.449-.166.42-.166-.694-.166-1.115.012-1.144.012-.695.178.39.13.477.238.564.702.044.309.058 1.308.03 2.236-.073 2.034-.348 2.712-1.188 2.997-1.056.37-2.011.155-2.431-.535-.217-.357-.26-.773-.26-2.83v-2.415l.477-.167c.434-.154.376-.166-1.057-.166-1.433 0-1.49.012-1.042.166zm11 .048l.463.25v2.7c0 1.498-.058 2.771-.115 2.854-.058.084-.276.19-.464.262-.275.083-.014.119 1.086.119s1.36-.036 1.085-.12c-.188-.07-.405-.177-.463-.26-.058-.084-.116-.69-.116-1.369v-1.213h.869c.81 0 .868.024 1.085.345.116.202.348.797.493 1.332.332 1.142.636 1.463 1.403 1.451.522-.011 1.231-.416 1.028-.583-.043-.035-.188.012-.318.12-.492.392-.71.19-1.057-.976-.347-1.19-.608-1.534-1.23-1.665l-.463-.107.665-.238c1.549-.571 1.752-2.153.362-2.843-.376-.19-.796-.226-2.619-.262l-2.172-.035.478.238zm3.083.012c.738.166 1.057.606 1.057 1.427-.015.357-.087.785-.189.928-.231.368-.998.618-1.823.618h-.652V28.27c0-1.76.189-1.939 1.607-1.617zm22.13-.084c.203.072.406.19.464.262.057.06.115 1.368.115 2.89v2.772l-.463.166c-.434.155-.202.167 2.432.179h2.909l-.015-.892c-.014-.94-.144-1.154-.303-.512-.261 1-.768 1.285-2.258 1.285-1.216 0-1.289-.095-1.289-1.677v-1.297h.637c.71 0 1.1.226 1.1.63 0 .143.073.346.145.44.101.12.145-.25.145-1.165 0-.809-.058-1.332-.145-1.332-.072 0-.145.143-.145.333 0 .57-.362.856-1.1.856h-.637v-1.284c0-.845.058-1.332.174-1.428.101-.083.623-.142 1.346-.142 1.346 0 1.621.13 1.766.88.145.75.333.595.333-.274v-.844l-2.779.012c-2.229 0-2.721.035-2.432.142zm12.549-.071c-.043.06-.637 1.297-1.332 2.771-1.432 3.033-1.447 3.07-1.867 3.355-.289.202-.275.202.782.202 1.056 0 1.071 0 .622-.167-.579-.202-.622-.559-.173-1.546l.289-.654h2.808l.42 1.01c.231.56.39 1.036.362 1.071a7.155 7.155 0 01-.42.167c-.275.083-.058.119.941.119 1.259.012 1.288 0 .984-.202-.29-.179-.941-1.44-2.808-5.472-.333-.702-.463-.844-.608-.654zm.391 2.462c.289.643.506 1.19.477 1.225-.043.024-.579.036-1.215.012l-1.158-.036.593-1.272c.319-.702.623-1.237.68-1.19.058.048.333.607.623 1.261zM3.634 27.544c-1.259.32-2.287 1.165-2.547 2.093-.145.523.26.512.695-.012.839-1.047 2.648-1.106 4.979-.178 2.011.797 2.822 1.01 3.922 1.01 1.592-.011 2.924-.677 3.502-1.76.522-.999.29-1.118-.636-.333-1.202 1.023-2.475 1-5.298-.107-2.243-.868-3.343-1.046-4.617-.713zm151.395.047c-1.288.369-2.142 1.083-2.417 2.046-.159.512.275.523.666.012.535-.666 1.143-.88 2.446-.82.984.035 1.273.118 3.039.808l1.954.761h1.375c1.071 0 1.491-.047 1.882-.226.998-.428 1.679-1.153 1.939-2.01.073-.261.044-.32-.188-.32a.432.432 0 00-.376.237c-.131.345-.883.809-1.563.963-.912.203-2.027-.012-4.01-.785-2.388-.916-3.372-1.058-4.747-.666z" fill="#F3EDE5"/>
  <path d="M81.401 1.126c-3.213.607-5.5 2.177-6.947 4.746-2.012 3.592-1.375 8.707 1.404 11.36 1.867 1.76 4.429 2.652 7.642 2.663 2.272.012 3.329-.261 5.558-1.439 1.143-.582 1.418-.5 1.693.571.13.535.203.619.463.583.203-.024.319-.119.304-.25l-.028-3.116-.03-2.914h-.36c-.29 0-.362.071-.434.44-.464 2.379-.768 3.045-1.882 4.044-1.13 1.047-3.155 1.653-5.095 1.558-2.764-.154-4.935-1.998-5.934-5.067-.362-1.07-.39-1.344-.39-3.711-.015-2.676.057-3.188.708-4.877 1.202-3.104 3.633-4.58 6.904-4.175 1.433.19 2.707.702 3.59 1.44 1.201 1.01 1.52 1.593 2.026 3.71.145.62.203.69.521.69h.347v-2.77c0-1.512.044-2.88.087-3.034.073-.214.03-.262-.26-.262-.319 0-.39.095-.608.714-.13.404-.333.75-.449.785-.115.036-.405-.024-.637-.143-2.735-1.427-3.329-1.605-5.586-1.665-1.144-.024-2.041.012-2.606.119zm46.533-.048c-3.951.607-6.918 3.081-7.989 6.638-.449 1.474-.449 4.52.014 5.911 1.202 3.687 4.212 5.864 8.583 6.245 4.617.392 8.438-1.297 10.392-4.58.912-1.546 1.216-2.76 1.216-4.995.014-1.951-.116-2.7-.68-4.044-.666-1.618-2.316-3.295-4.082-4.164-1.462-.713-2.909-1.022-4.993-1.07-.999-.024-2.099 0-2.461.06zm4.024.762c3.126 1.308 4.892 5.376 4.371 10.039-.318 2.914-1.303 5.043-2.953 6.387-1.071.892-1.968 1.19-3.502 1.178-1.998-.024-3.749-1.071-4.936-2.974-1.129-1.808-1.491-3.26-1.491-5.995 0-3.342.71-5.543 2.331-7.315 1.143-1.249 2.359-1.737 4.183-1.69.998.037 1.375.108 1.997.37zm-95.555-.024a89.94 89.94 0 01-1.26 2.712c-.535 1.142-1.62 3.414-2.388 5.055-3.806 8.136-3.835 8.195-4.573 8.826-.246.202-.637.44-.854.523-.246.083-.42.226-.42.357 0 .214.16.226 3.054.226 2.822 0 3.04-.012 2.996-.214-.03-.12-.203-.214-.405-.238-.927-.083-1.621-.31-1.983-.666-.348-.345-.362-.428-.29-1.261.058-.702.246-1.26.912-2.712l.854-1.808 3.662.024 3.676.036.926 2.081c1.607 3.58 1.636 3.759.637 4.092-.318.107-.781.19-1.013.19-.333 0-.434.048-.434.238 0 .238.101.238 4.024.238 3.82 0 4.023-.012 4.038-.226.014-.155-.13-.25-.536-.357-.347-.083-.723-.297-.94-.547-.218-.214-1.491-2.748-2.837-5.614-1.36-2.867-3.127-6.626-3.952-8.362l-1.505-3.152-.55-.036c-.564-.036-.564-.036-.84.595zm2.59 10.05l.087.274h-6.802l.347-.773c.203-.428.535-1.13.738-1.582.203-.44.724-1.546 1.144-2.474.42-.916.883-1.88 1.013-2.14l.246-.465 1.563 3.45a446.793 446.793 0 011.664 3.71zM1 1.554c0 .155.16.226.68.298.362.047.825.13 1.013.19.753.238.768.321.768 8.41 0 4.912-.058 7.6-.145 7.838-.188.416-.637.618-1.621.713-.55.06-.695.12-.695.286 0 .214.203.226 4.27.226 4.067 0 4.27-.012 4.27-.226 0-.167-.145-.238-.637-.286a6.42 6.42 0 01-1-.214c-.694-.261-.752-.583-.752-4.508v-3.628h9.495l-.014 3.652c0 2.189-.073 3.783-.16 3.997-.159.392-.564.57-1.577.713-.449.06-.666.155-.695.298-.043.19.26.202 4.299.202 4.154 0 4.356-.012 4.356-.226 0-.167-.145-.226-.695-.286-.97-.095-1.432-.297-1.65-.725-.13-.274-.188-1.998-.231-7.03-.029-3.663-.014-7.1.043-7.648.13-1.26.377-1.534 1.593-1.725.593-.095.868-.202.868-.32 0-.155-.565-.18-4.27-.18-3.69 0-4.27.025-4.27.18 0 .118.29.225.912.332 1.505.274 1.477.19 1.477 4.568v3.663H7.064l.044-3.675C7.166 2.1 7.122 2.22 8.642 1.91c.637-.13.897-.238.897-.369 0-.178-.42-.19-4.27-.202C1.276 1.34 1 1.352 1 1.554zm50.079 0c0 .155.16.226.68.298 1.042.13 1.448.344 1.621.868.217.606.217 14.785 0 15.403-.173.547-.593.785-1.563.88-.622.06-.738.107-.738.322v.25l8.337-.036 8.351-.024-.101-.63c-.044-.334-.087-1.618-.087-2.855v-2.225h-.362c-.304 0-.362.06-.362.345 0 .667-.709 2.653-1.158 3.236-.506.63-1.462 1.225-2.373 1.439-.362.095-1.506.155-2.866.155-2.07 0-2.301-.024-2.678-.25-.217-.131-.448-.38-.492-.535-.058-.155-.101-3.616-.116-7.684-.014-8.921-.13-8.326 1.723-8.648.535-.083.81-.19.84-.32.043-.18-.363-.203-4.3-.203-4.081 0-4.356.012-4.356.214zm45.447.024c0 .119.145.262.333.321.608.202 1.1.797 2.895 3.52.984 1.5 1.997 3.034 2.229 3.39.246.358.941 1.404 1.549 2.332l1.1 1.677v2.272c0 3.402-.16 3.759-1.723 3.913-.593.06-.738.107-.738.286 0 .214.203.226 4.27.226 4.067 0 4.27-.012 4.27-.226 0-.179-.145-.226-.753-.286-.897-.095-1.433-.38-1.592-.868-.073-.19-.116-1.725-.116-3.414v-3.068l2.186-3.593c1.215-1.974 2.446-3.949 2.75-4.377.564-.809 1.621-1.772 1.939-1.772.203 0 .405-.321.289-.464-.028-.047-1.403-.095-3.039-.107-2.793-.012-2.967 0-2.967.202 0 .179.188.25.897.369.652.095.999.238 1.317.488.406.345.42.392.362 1.201-.072.785-.202 1.035-2.185 4.33-1.173 1.927-2.171 3.497-2.229 3.497-.058-.012-.246-.238-.406-.512-.159-.273-1.317-2.105-2.561-4.08-1.245-1.962-2.316-3.71-2.36-3.89-.188-.594.261-.891 1.708-1.093.391-.048.536-.131.536-.298 0-.214-.174-.226-3.98-.202-3.764.012-3.98.024-3.98.226zm49.413-.131c-.144.202.073.31.927.452.492.071.97.238 1.114.369.449.404.536 1.915.478 8.778-.044 5.84-.072 6.673-.29 7.065-.26.476-.593.666-1.548.869-.42.083-.652.202-.681.333-.028.19.232.202 3.069.202 2.924 0 3.097-.012 3.097-.226 0-.179-.144-.226-.738-.286-.955-.095-1.592-.404-1.896-.927-.232-.381-.26-1.011-.26-7.185V4.004c0-.142.651.619 5.948 6.947 1.332 1.606 2.75 3.283 3.141 3.747.376.452 1.476 1.76 2.417 2.89 1.722 2.058 1.737 2.058 2.244 2.022l.506-.036.072-8.326c.044-4.591.131-8.41.203-8.504.347-.476.767-.714 1.476-.845.579-.107.782-.202.782-.345 0-.19-.261-.214-3.039-.214-2.852 0-3.04.012-3.04.214 0 .167.145.238.622.298.999.13 1.593.428 1.911.951.275.452.289.75.333 6.15.029 3.128 0 5.685-.073 5.673-.057 0-2.648-2.985-5.746-6.637l-5.63-6.649h-2.663c-1.447 0-2.678.048-2.736.107zM20.25 26.52c-1.549.679-2.36 2.225-2.026 3.902.333 1.653 1.505 2.534 3.416 2.558.709.011 1.027-.048 1.577-.298.782-.369.94-.392.94-.154 0 .095.073.214.146.25.087.047.144-.322.144-1 0-.642-.057-1.082-.144-1.082-.073 0-.145.142-.145.32 0 .191-.13.56-.29.845-.361.655-1.288 1.035-2.286.94-.869-.083-1.317-.38-1.839-1.213-.405-.666-.434-.809-.42-1.963 0-1.427.334-2.272 1.1-2.795.55-.38.97-.464 1.824-.357.883.107 1.694.762 1.838 1.475.174.82.362.535.362-.535 0-.642-.057-.987-.144-.94-.073.036-.145.155-.145.25 0 .238-.16.214-.883-.13-.81-.381-2.243-.405-3.025-.072zm58.329-.035c-.666.238-1.39.82-1.78 1.416-.434.677-.521 2.474-.174 3.223.55 1.177 1.766 1.867 3.285 1.867 1.506 0 2.91-.88 3.315-2.093.246-.69.232-1.939 0-2.605-.246-.702-1.042-1.487-1.81-1.772-.723-.274-2.127-.286-2.836-.036zm2.446.25c.203.13.564.547.81.928.391.618.42.785.435 1.89 0 .845-.073 1.38-.26 1.809-.55 1.296-1.955 1.832-3.127 1.201-1.882-1.023-1.896-4.84-.015-5.888.608-.333 1.535-.309 2.157.06zm34.78-.238c-.897.357-1.23 1.487-.666 2.284.16.226.782.666 1.448 1.023.651.357 1.346.809 1.563 1.01.825.821.217 2.023-1.028 2.023-1.042 0-1.751-.595-1.997-1.69-.058-.25-.159-.416-.232-.38-.188.083-.173 2.189.015 2.189.087 0 .145-.084.145-.179 0-.238.333-.226.911.012.247.107.782.202 1.187.202 1.404 0 2.388-.666 2.388-1.617 0-.94-.303-1.237-2.605-2.486-1.1-.595-1.404-1.011-1.216-1.63.102-.333.261-.476.695-.654.521-.202.623-.214 1.158-.06.622.179 1.245.857 1.245 1.38 0 .155.072.274.145.274.086 0 .144-.38.144-.916 0-.856-.014-.904-.246-.726-.217.19-.275.179-.781-.035-.666-.274-1.621-.286-2.273-.024zm29.396-.024c-.579.202-1.056.82-1.056 1.368 0 .726.434 1.19 1.896 2.022 1.635.928 2.012 1.392 1.737 2.153-.203.535-.724.82-1.549.82-.767 0-1.578-.69-1.722-1.462-.189-.976-.362-.738-.362.464 0 .987.029 1.13.188.951.174-.202.231-.202 1.071.036 1.882.523 3.401-.167 3.401-1.535 0-.784-.448-1.26-1.896-2.045-1.621-.869-1.896-1.119-1.896-1.701 0-.69.507-1.07 1.39-1.059.825.012 1.404.44 1.635 1.19.232.749.449.535.449-.44 0-.845-.058-.964-.362-.631-.145.178-.217.167-.724-.06-.665-.285-1.519-.32-2.2-.07zM31.12 27.817c-1.578 3.414-2.171 4.556-2.49 4.782l-.347.226h1.085c1.057 0 1.072 0 .623-.167-.405-.142-.478-.226-.478-.57 0-.227.145-.69.304-1.024l.319-.618 2.764.071.39.892c.218.488.406.94.406.988.015.047-.203.166-.449.261-.463.167-.42.167.883.179h1.36l-.347-.274c-.231-.166-.825-1.273-1.722-3.2-.753-1.617-1.433-2.95-1.52-2.95-.072 0-.434.631-.781 1.404zm1.056 1.13c.29.63.521 1.19.521 1.213 0 .036-.564.06-1.244.06s-1.216-.048-1.187-.095c.029-.06.304-.642.608-1.309.318-.666.622-1.177.68-1.13.043.06.333.619.622 1.261zm7.006-2.355l.463.167v2.843c0 2.985-.015 3.02-.652 3.152-.159.023 1.028.059 2.65.07l2.923.013v-.952c0-1.01-.203-1.284-.333-.452-.101.583-.492 1.07-.984 1.178-.594.143-2.085.119-2.273-.036-.13-.107-.173-.928-.173-2.974V26.76l.477-.167c.434-.154.377-.166-1.056-.166s-1.491.012-1.042.166zm9.654-.047c.622.297.65.404.65 2.973 0 1.356-.057 2.605-.144 2.783a.905.905 0 01-.463.417c-.246.071-.043.107.753.107 1.042 0 1.07 0 .636-.155-.26-.095-.492-.285-.535-.44-.145-.44-.116-5.162.029-5.043.058.071.217.357.347.654.608 1.451 2.388 5.055 2.49 5.032.072-.012.68-1.25 1.36-2.76.68-1.499 1.288-2.771 1.36-2.82.059-.047.102 1.06.102 2.475 0 2.712-.014 2.771-.724 2.986-.115.035.435.07 1.23.07 1.376 0 1.42-.011.985-.166l-.478-.166v-5.733l.478-.167c.449-.166.449-.178-.536-.143l-1.013.024-.463 1.011c-.26.56-.796 1.737-1.201 2.617-.695 1.558-.724 1.594-.883 1.249-.102-.202-.449-.975-.796-1.725a347.81 347.81 0 00-1.057-2.26l-.42-.892-.998-.024c-.796-.023-.941-.012-.71.096zm17.585-.06c0 .036.13.155.275.262.16.119.81.999 1.447 1.974l1.173 1.773v1.998l-.463.166c-.45.155-.406.167.97.167.795 0 1.345-.036 1.23-.072-.608-.19-.724-.404-.724-1.427v-1.01l1.028-1.678c.564-.928 1.2-1.808 1.403-1.95l.391-.274h-1.158c-.796 0-1.085.035-.94.119.115.06.332.119.463.119.55 0 .448.475-.449 1.998-.492.809-.912 1.463-.94 1.44-.174-.155-1.97-3.034-1.97-3.165 0-.083.16-.214.363-.273.202-.06.362-.143.362-.179 0-.035-.55-.06-1.23-.06-.68 0-1.23.036-1.23.072zm21.392.107l.463.167v1.879c0 2.89.26 3.7 1.332 4.151.651.274 1.94.262 2.649-.047 1.056-.44 1.143-.702 1.244-3.474.044-1.344.102-2.45.102-2.474.014-.024.246-.107.506-.202.449-.166.42-.166-.694-.166-1.115.012-1.144.012-.695.178.39.13.477.238.564.702.044.309.058 1.308.03 2.236-.073 2.034-.348 2.712-1.188 2.997-1.056.37-2.011.155-2.431-.535-.217-.357-.26-.773-.26-2.83v-2.415l.477-.167c.434-.154.376-.166-1.057-.166-1.433 0-1.49.012-1.042.166zm11 .048l.463.25v2.7c0 1.498-.058 2.771-.115 2.854-.058.084-.276.19-.464.262-.275.083-.014.119 1.086.119s1.36-.036 1.085-.12c-.188-.07-.405-.177-.463-.26-.058-.084-.116-.69-.116-1.369v-1.213h.869c.81 0 .868.024 1.085.345.116.202.348.797.493 1.332.332 1.142.636 1.463 1.403 1.451.522-.011 1.231-.416 1.028-.583-.043-.035-.188.012-.318.12-.492.392-.71.19-1.057-.976-.347-1.19-.608-1.534-1.23-1.665l-.463-.107.665-.238c1.549-.571 1.752-2.153.362-2.843-.376-.19-.796-.226-2.619-.262l-2.172-.035.478.238zm3.083.012c.738.166 1.057.606 1.057 1.427-.015.357-.087.785-.189.928-.231.368-.998.618-1.823.618h-.652V28.27c0-1.76.189-1.939 1.607-1.617zm22.13-.084c.203.072.406.19.464.262.057.06.115 1.368.115 2.89v2.772l-.463.166c-.434.155-.202.167 2.432.179h2.909l-.015-.892c-.014-.94-.144-1.154-.303-.512-.261 1-.768 1.285-2.258 1.285-1.216 0-1.289-.095-1.289-1.677v-1.297h.637c.71 0 1.1.226 1.1.63 0 .143.073.346.145.44.101.12.145-.25.145-1.165 0-.809-.058-1.332-.145-1.332-.072 0-.145.143-.145.333 0 .57-.362.856-1.1.856h-.637v-1.284c0-.845.058-1.332.174-1.428.101-.083.623-.142 1.346-.142 1.346 0 1.621.13 1.766.88.145.75.333.595.333-.274v-.844l-2.779.012c-2.229 0-2.721.035-2.432.142zm12.549-.071c-.043.06-.637 1.297-1.332 2.771-1.432 3.033-1.447 3.07-1.867 3.355-.289.202-.275.202.782.202 1.056 0 1.071 0 .622-.167-.579-.202-.622-.559-.173-1.546l.289-.654h2.808l.42 1.01c.231.56.39 1.036.362 1.071a7.155 7.155 0 01-.42.167c-.275.083-.058.119.941.119 1.259.012 1.288 0 .984-.202-.29-.179-.941-1.44-2.808-5.472-.333-.702-.463-.844-.608-.654zm.391 2.462c.289.643.506 1.19.477 1.225-.043.024-.579.036-1.215.012l-1.158-.036.593-1.272c.319-.702.623-1.237.68-1.19.058.048.333.607.623 1.261zM3.634 27.544c-1.259.32-2.287 1.165-2.547 2.093-.145.523.26.512.695-.012.839-1.047 2.648-1.106 4.979-.178 2.011.797 2.822 1.01 3.922 1.01 1.592-.011 2.924-.677 3.502-1.76.522-.999.29-1.118-.636-.333-1.202 1.023-2.475 1-5.298-.107-2.243-.868-3.343-1.046-4.617-.713zm151.395.047c-1.288.369-2.142 1.083-2.417 2.046-.159.512.275.523.666.012.535-.666 1.143-.88 2.446-.82.984.035 1.273.118 3.039.808l1.954.761h1.375c1.071 0 1.491-.047 1.882-.226.998-.428 1.679-1.153 1.939-2.01.073-.261.044-.32-.188-.32a.432.432 0 00-.376.237c-.131.345-.883.809-1.563.963-.912.203-2.027-.012-4.01-.785-2.388-.916-3.372-1.058-4.747-.666z" stroke="#B0A89F" stroke-width=".3" mask="url(#tflk9yMTQHRZa)"/>
</svg>
